#!OML:ASF H:\Dans Jumps\Project 1\Capture day 1\Session 1\subject.ASF
:FULLY-SPECIFIED
:DEGREES
88
root 0.523599 17.4945 -14.1428 5.80246 -0.506674 -1.25371
lowerback -0.249175 -0.495692 -0.119543
upperback 3.93892 -0.718914 1.65562
thorax 4.21855 -0.395294 1.74628
lowerneck -13.1272 0.681363 -1.9107
upperneck 33.3851 1.35328 0.495623
head 13.4067 0.411485 0.733954
rclavicle -7.00716e-015 -8.54774e-015
rhumerus -24.5365 -15.4285 -79.8967
rradius 24.9897
rwrist 30.9307
rhand -18.4481 -26.4616
rfingers 7.12502
rthumb 7.83786 -56.2963
lclavicle -7.00716e-015 -8.54774e-015
lhumerus -20.384 1.42776 86.1636
lradius 18.5159
lwrist 2.48275
lhand -25.6577 -3.15152
lfingers 7.12502
lthumb 0.876322 26.8264
rfemur -15.4222 -2.06475 19.8745
rtibia 25.6387
rfoot -14.6886 -2.56466
rtoes 10.8291
lfemur -14.2695 7.05329 -19.1006
ltibia 23.2417
lfoot -12.565 5.03472
ltoes 3.24189
89
root 0.527078 17.4925 -14.1439 5.79693 -0.539893 -1.24837
lowerback -0.230694 -0.496457 -0.120166
upperback 3.94176 -0.71989 1.65739
thorax 4.21108 -0.395833 1.74855
lowerneck -13.1343 0.682006 -1.92706
upperneck 33.3804 1.35829 0.49664
head 13.406 0.411672 0.737962
rclavicle -4.67144e-015 -1.51076e-014
rhumerus -24.5248 -15.4312 -79.8973
rradius 24.9912
rwrist 30.9244
rhand -18.4222 -26.4736
rfingers 7.12502
rthumb 7.86289 -56.3074
lclavicle -4.67144e-015 -1.51076e-014
lhumerus -20.3881 1.4517 86.1434
lradius 18.5073
lwrist 2.48399
lhand -25.6748 -3.17358
lfingers 7.12502
lthumb 0.859831 26.8044
rfemur -15.4625 -2.02352 19.8556
rtibia 25.7121
rfoot -14.7101 -2.59238
rtoes 10.7513
lfemur -14.2987 7.0835 -19.1209
ltibia 23.3078
lfoot -12.5937 5.04615
ltoes 3.22518
90
root 0.53053 17.4904 -14.1449 5.78961 -0.57488 -1.24341
lowerback -0.210134 -0.496636 -0.120214
upperback 3.94474 -0.720064 1.65869
thorax 4.20255 -0.39594 1.75005
lowerneck -13.1375 0.682807 -1.94194
upperneck 33.3744 1.36387 0.495162
head 13.4039 0.411983 0.740771
rclavicle -1.59028e-015 9.34288e-015
rhumerus -24.514 -15.4323 -79.8974
rradius 24.994
rwrist 30.9166
rhand -18.3942 -26.4857
rfingers 7.12502
rthumb 7.88991 -56.3184
lclavicle -1.59028e-015 9.34288e-015
lhumerus -20.3933 1.47602 86.1249
lradius 18.4978
lwrist 2.48327
lhand -25.6928 -3.20869
lfingers 7.12502
lthumb 0.842431 26.7694
rfemur -15.5017 -1.97406 19.8376
rtibia 25.7849
rfoot -14.73 -2.62982
rtoes 10.653
lfemur -14.3264 7.11314 -19.1404
ltibia 23.3756
lfoot -12.6227 5.05999
ltoes 3.20814
91
root 0.53393 17.4883 -14.146 5.78178 -0.607454 -1.2387
lowerback -0.188672 -0.498446 -0.120284
upperback 3.94866 -0.722429 1.66019
thorax 4.19455 -0.39715 1.75171
lowerneck -13.1442 0.685538 -1.9501
upperneck 33.3694 1.37322 0.485657
head 13.4032 0.413693 0.739839
rclavicle -5.26779e-015 -3.97569e-015
rhumerus -24.5012 -15.4328 -79.8978
rradius 24.9977
rwrist 30.9111
rhand -18.3666 -26.4966
rfingers 7.12502
rthumb 7.91651 -56.3284
lclavicle -5.26779e-015 -3.97569e-015
lhumerus -20.3984 1.50677 86.1078
lradius 18.4882
lwrist 2.47719
lhand -25.7103 -3.24205
lfingers 7.12502
lthumb 0.82551 26.7361
rfemur -15.5395 -1.92005 19.82
rtibia 25.8576
rfoot -14.7521 -2.67234
rtoes 10.5691
lfemur -14.3541 7.14051 -19.1594
ltibia 23.4441
lfoot -12.6518 5.07521
ltoes 3.18933
